HIERARCHY
ROOT Hips
{
    OFFSET 0.0 0.0 0.0
    CHANNELS 6 Xposition Yposition Zposition Zrotation Xrotation Yrotation
    JOINT LeftHipJoint
    {
        OFFSET 0.1 0.0 0.0
        CHANNELS 3 Zrotation Xrotation Yrotation
        JOINT LeftUpLeg
        {
            OFFSET 123.74130375243608 0.0 0.0
            CHANNELS 3 Zrotation Xrotation Yrotation
            JOINT LeftLeg
            {
                OFFSET 0.0 0.0 -406.0136630512344
                CHANNELS 3 Zrotation Xrotation Yrotation
                JOINT LeftFoot
                {
                    OFFSET 0.0 0.0 -390.24447609165736
                    CHANNELS 3 Zrotation Xrotation Yrotation
                    End Site
                    {
                        OFFSET 0.0 -0.1 0.0
                    }
                }
            }
        }
    }
    JOINT LowerBack
    {
        OFFSET 0.0 0.0 0.1
        CHANNELS 3 Zrotation Xrotation Yrotation
        JOINT Spine
        {
            OFFSET 0.0 0.0 217.31423249236616
            CHANNELS 3 Zrotation Xrotation Yrotation
            JOINT Spine1
            {
                OFFSET 0.0 0.0 251.05368013098993
                CHANNELS 3 Zrotation Xrotation Yrotation
                JOINT LeftShoulder
                {
                    OFFSET 0.1 0.0 0.0
                    CHANNELS 3 Zrotation Xrotation Yrotation
                    JOINT LeftArm
                    {
                        OFFSET 140.14871689720528 0.0 0.0
                        CHANNELS 3 Zrotation Xrotation Yrotation
                        JOINT LeftForeArm
                        {
                            OFFSET 259.35119583515984 0.0 0.0
                            CHANNELS 3 Zrotation Xrotation Yrotation
                            JOINT LeftHand
                            {
                                OFFSET 243.11570114482433 0.0 0.0
                                CHANNELS 3 Zrotation Xrotation Yrotation
                                End Site
                                {
                                    OFFSET 0.1 0.0 0.0
                                }
                            }
                        }
                    }
                }
                JOINT Neck
                {
                    OFFSET 0.0 0.0 0.1
                    CHANNELS 3 Zrotation Xrotation Yrotation
                    JOINT Neck1
                    {
                        OFFSET 0.0 0.0 106.66949390581833
                        CHANNELS 3 Zrotation Xrotation Yrotation
                        End Site
                        {
                            OFFSET 0.0 0.0 116.82064115742672
                        }
                    }
                }
                JOINT RightShoulder
                {
                    OFFSET -0.1 0.0 0.0
                    CHANNELS 3 Zrotation Xrotation Yrotation
                    JOINT RightArm
                    {
                        OFFSET -140.14871689720528 0.0 0.0
                        CHANNELS 3 Zrotation Xrotation Yrotation
                        JOINT RightForeArm
                        {
                            OFFSET -259.35119583515984 0.0 0.0
                            CHANNELS 3 Zrotation Xrotation Yrotation
                            JOINT RightHand
                            {
                                OFFSET -243.11570114482433 0.0 0.0
                                CHANNELS 3 Zrotation Xrotation Yrotation
                                End Site
                                {
                                    OFFSET -0.1 0.0 0.0
                                }
                            }
                        }
                    }
                }
            }
        }
    }
    JOINT RightHipJoint
    {
        OFFSET -0.1 0.0 0.0
        CHANNELS 3 Zrotation Xrotation Yrotation
        JOINT RightUpLeg
        {
            OFFSET -123.74130375243608 0.0 0.0
            CHANNELS 3 Zrotation Xrotation Yrotation
            JOINT RightLeg
            {
                OFFSET 0.0 0.0 -406.0136630512344
                CHANNELS 3 Zrotation Xrotation Yrotation
                JOINT RightFoot
                {
                    OFFSET 0.0 0.0 -390.24447609165736
                    CHANNELS 3 Zrotation Xrotation Yrotation
                    End Site
                    {
                        OFFSET 0.0 -0.1 0.0
                    }
                }
            }
        }
    }
}
MOTION
Frames: 7
Frame Time: 0.03333333333333333
0.0 0.0 800.8785725410312 22.521755931991677 5.605195763643958 4.3153919211569285 0.0 0.0 3.975693351829396e-16 -0.5552514795102688 -21.859215678420416 1.0946003158923034 1.0192619361667816 21.475350466932635 -0.9514027508740905 0.0 0.0 9.93923337957349e-17 0.0 0.0 3.975693351829396e-16 0.11387927992469336 4.686372689234222 -0.9320203246600105 0.5830317749028207 -1.3874290843246498e-15 8.022081403752949e-16 -5.517382872562698e-33 -1.5902773407317584e-15 -3.975693351829396e-16 -14.40859289616897 11.410704958277673 77.78798854828584 -23.629867909273113 -5.0576622911202454e-15 -9.331207292878584e-17 3.975693351829396e-16 7.15535591285475e-33 2.0623909262614992e-15 -5.517382872562698e-33 -1.5902773407317584e-15 -3.975693351829396e-16 -3.191537916067541 5.179418526840433 -3.5927048303989744 -5.517382872562698e-33 -1.5902773407317584e-15 -3.975693351829396e-16 9.723648429088021 13.929122213558706 -76.57793824103489 44.94355914998196 1.723350375003165e-15 -4.154746640715344e-15 0.0 0.0 -7.951386703658792e-16 0.0 0.0 3.975693351829396e-16 -0.5048490584125341 -19.899536475047626 -2.934153162209958 -0.5922666636435032 22.146709722568932 -0.13092085846245566 0.0 0.0 -1.987846675914698e-16
0.0 0.0 800.8785725410312 22.411019079651513 5.553901597026999 4.338752061652554 -3.1805546814635168e-15 9.93923337957349e-16 -3.9756933518293955e-16 -0.5253180897085671 -22.067221858192166 1.0964447580545569 1.0161108706487796 22.1236429345737 -0.953651369235243 0.0 0.0 0.0 -3.1805546814635168e-15 9.93923337957349e-16 -3.9756933518293955e-16 0.10516402518524479 4.621732853444169 -0.9794376518841118 0.5240603789575264 -6.018023464595308e-16 -1.1899682428204144e-15 3.1805546814635164e-15 -1.987846675914698e-16 -3.9756933518293955e-16 -14.452861189272676 11.200781510914751 77.88285283915141 -23.922293823377412 -4.71596126216643e-15 -6.99336016309702e-15 1.987846675914698e-16 1.2608081954879604e-33 7.268064408813115e-16 3.1805546814635164e-15 -1.987846675914698e-16 -3.9756933518293955e-16 -3.113008527558854 5.039269710905635 -3.5236471745564595 3.1805546814635164e-15 -1.987846675914698e-16 -3.9756933518293955e-16 9.941719668665648 13.796081412153134 -76.21801446955907 46.57519147633849 1.0872569069551687e-14 9.170921625628349e-15 0.0 0.0 7.951386703658792e-16 -3.1805546814635168e-15 9.93923337957349e-16 -3.9756933518293955e-16 -0.47395248820474223 -19.94122739445172 -2.888157807526991 -0.6200893519816771 22.423783437488336 -0.2534888909635673 -3.1805546814635168e-15 0.0 0.0
0.0 0.0 800.8785725410312 22.34066693671906 5.401373386479623 4.2144800151840265 1.3793457181406746e-33 -7.951386703658792e-16 1.987846675914698e-16 -0.4604872411301155 -22.062676023704952 1.3244060294656563 1.0696538191661285 22.71434713922843 -1.0544940831347647 0.0 0.0 0.0 1.3793457181406746e-33 -7.951386703658792e-16 1.987846675914698e-16 0.09091536295398912 4.55467326907398 -0.9478584957479042 0.34113348643948055 2.9588569664878798e-18 9.939189337676038e-16 0.0 0.0 -3.975693351829396e-16 -14.457515361254373 11.146590763530321 78.06511721647442 -24.13953403155278 1.101704517078446e-15 1.2646738986022331e-15 0.0 0.0 -1.584065319869525e-15 0.0 0.0 -3.975693351829396e-16 -2.917000946246287 4.869605243644992 -3.407545884952224 0.0 0.0 -3.975693351829396e-16 9.769546505048936 14.017186736606634 -75.6690738582228 49.466196506116034 -4.2195097768071406e-15 -1.5580736205288705e-15 0.0 0.0 3.1805546814635168e-15 1.3793457181406746e-33 -7.951386703658792e-16 1.987846675914698e-16 -0.4133381677684584 -19.821151172743324 -2.6835325988855945 -0.61630351275342 22.764332404227876 -0.3412899936455242 0.0 0.0 -3.975693351829396e-16
0.0 0.0 800.8785725410312 22.273131723999093 5.448770195043815 4.154866184961813 -3.4483642953516864e-34 -1.9878466759146977e-16 -1.9878466759146977e-16 -0.45939457885125473 -22.41217617936063 1.4205388301482293 1.126864705310028 23.190448342278103 -1.0311234120449877 0.0 0.0 1.987846675914698e-16 -3.4483642953516864e-34 -1.9878466759146977e-16 -1.9878466759146977e-16 0.08686699036308079 4.439632763577124 -1.0092554426720135 0.19269438364549588 1.3924935197213732e-15 5.940132604261862e-16 0.0 0.0 -3.975693351829396e-16 -14.330612475717428 11.087208270238193 78.22298656296697 -24.61982557484261 1.327006774859278e-17 -9.180735475724978e-15 -3.975693351829396e-16 8.728672122608957e-33 -2.5158684492045398e-15 0.0 0.0 -3.975693351829396e-16 -2.676041477874635 4.63983087227137 -3.327356936012155 0.0 0.0 -3.975693351829396e-16 8.81893114250115 14.139403148184185 -75.01221176475985 53.32970317091458 -1.2387889851280975e-17 -7.111925685008422e-15 0.0 0.0 3.975693351829396e-16 -3.4483642953516864e-34 -1.9878466759146977e-16 -1.9878466759146977e-16 -0.4099116446914769 -20.034315240719806 -2.597937868329618 -0.5967534751518712 23.008594690055986 -0.393482397471186 0.0 0.0 -1.987846675914698e-16
0.0 0.0 800.8785725410312 22.2098378313169 5.248702318871053 4.047845522248202 0.0 0.0 9.93923337957349e-17 -0.41870069035210034 -22.33381042681945 1.5957029665926772 1.1726895874318892 23.45462809150526 -1.1949626500528532 2.758691436281349e-33 -7.951386703658791e-16 3.9756933518293955e-16 0.0 0.0 9.93923337957349e-17 0.07850372692798825 4.382771565276246 -1.049490596179283 0.09447066773619255 -2.782492759145599e-15 5.986481266485313e-16 3.1805546814635164e-15 -1.987846675914698e-16 -9.939233379573488e-16 -14.368286198475888 11.335791365295677 78.49139518966723 -25.016667727390963 3.560526631113035e-15 -1.4443250894461813e-14 0.0 0.0 -1.2517222037400364e-15 3.1805546814635164e-15 -1.987846675914698e-16 -9.939233379573488e-16 -2.4616695818186156 4.619290108591395 -3.1429868748260628 3.1805546814635164e-15 -1.987846675914698e-16 -9.939233379573488e-16 7.95194011518682 14.341993669844625 -74.34653395037607 57.04750718262326 4.5563645911306086e-15 8.383489395753219e-15 6.3611093629270335e-15 -8.827812596100317e-32 -1.5902773407317584e-15 0.0 0.0 9.93923337957349e-17 -0.3709936244113313 -19.811989830964624 -2.5175925611564343 -0.6045624919946685 22.959347716082227 -0.33569486317694575 0.0 0.0 0.0
0.0 0.0 800.8785725410312 22.178390586110833 5.162791467619827 3.9649438288026118 0.0 0.0 -9.93923337957349e-17 -0.36664345842222595 -22.518031226013623 1.7267090941740888 1.1840381760387548 23.762541650282287 -1.2876514858420591 -3.1805546814635168e-15 -1.1034765745125397e-32 3.975693351829396e-16 0.0 0.0 -9.93923337957349e-17 0.06770843020269023 4.353428560087579 -1.0726881275376958 0.18094538345201513 2.5854530172794965e-15 7.910571081083906e-16 0.0 0.0 3.975693351829396e-16 -14.443605911572748 11.477145379571454 78.68072644392363 -25.59855782905237 -2.485183863717776e-15 -1.194195962278941e-14 0.0 0.0 -3.2923710569837183e-16 0.0 0.0 3.975693351829396e-16 -2.38440146456939 4.400328451643553 -2.981216452870445 0.0 0.0 3.975693351829396e-16 7.076318747092422 13.837607893637879 -73.56243244935854 60.15707372754837 -5.504517458891928e-15 3.1881028640669536e-15 0.0 0.0 2.5842006786891076e-15 0.0 0.0 -9.93923337957349e-17 -0.3224480321442754 -19.815297697821563 -2.4788649381689463 -0.6462747357783675 22.876122714703655 -0.19890771884466477 0.0 0.0 0.0
0.0 0.0 800.8785725410312 22.126590102726237 4.970278129575215 3.9477179318893856 0.0 0.0 -9.93923337957349e-17 -0.31850746368630006 -22.425696970868355 1.7193617090676032 1.134825446717628 23.913149559720402 -1.2017282397044078 0.0 0.0 3.975693351829396e-16 0.0 0.0 -9.93923337957349e-17 0.05798271690553759 4.268765596675847 -1.1133744186459855 0.18347927190949848 -5.004621742539282e-16 -2.185832826402488e-15 0.0 -9.939233379573489e-17 0.0 -15.059496389107707 11.662257994782584 78.89299580880306 -26.185678489199724 -5.314915956868318e-16 1.0182939937290095e-14 1.9878466759146975e-16 -5.963540027744093e-16 -2.2239034686795682e-15 0.0 -9.939233379573489e-17 0.0 -2.204669671871 4.369953018952516 -2.886536771794183 0.0 -9.939233379573489e-17 0.0 6.241859285295948 13.487364393061279 -72.75251485429057 63.52719863551417 -1.455087251288017e-14 1.2749958750511686e-14 0.0 0.0 0.0 0.0 0.0 -9.93923337957349e-17 -0.27844766467789933 -19.591888792766394 -2.5193630637224294 -0.7116513066989132 22.797079061256856 -0.09255746573664923 -2.758691436281349e-33 -1.5902773407317584e-15 -1.987846675914698e-16
